<svg width="37" height="28" viewBox="0 0 37 28" fill="none" xmlns="http://www.w3.org/2000/svg">
<path d="M34.9764 8.02939H1.0976V26.8203H34.9764V8.02939Z" fill="url(#paint0_linear_568_7848)"/>
<path fill-rule="evenodd" clip-rule="evenodd" d="M3.48135 0.649414H32.6055C33.5616 0.649414 34.4276 1.02056 35.0579 1.59888C35.6838 2.18583 36.074 2.99288 36.074 3.87761V24.6279C36.074 25.5126 35.6838 26.3154 35.0579 26.9066C34.4276 27.4936 33.5616 27.8432 32.6055 27.8432H3.48135C2.51669 27.8432 1.64635 27.4936 1.0204 26.9066C0.390153 26.3197 0 25.5126 0 24.6279V3.87761C0 2.99288 0.390153 2.17719 1.0204 1.59888C1.64635 1.01625 2.51669 0.649414 3.48135 0.649414ZM1.09757 24.6236C1.09757 25.8363 2.1737 26.8203 3.47706 26.8203H32.6012C33.9046 26.8203 34.9721 25.8406 34.9721 24.6236V3.87329C34.9721 2.65193 33.9046 1.66793 32.6012 1.66793H3.47706C2.16941 1.66793 1.09757 2.65624 1.09757 3.87329V21.5723L16.0562 7.71003C16.605 7.19214 17.3253 6.94614 18.037 6.94614V6.9375C18.7573 6.9375 19.4733 7.19646 20.0092 7.71435H20.0178L34.9721 21.5766V23.1001L19.186 8.46529H19.1903C18.873 8.17614 18.4572 8.03371 18.037 8.03371C17.6168 8.03371 17.2052 8.17614 16.8751 8.46529L1.09757 23.1001V24.6236Z" fill="white"/>
<path fill-rule="evenodd" clip-rule="evenodd" d="M3.48137 1.66791H32.6055C33.9089 1.66791 34.9764 2.65622 34.9764 3.87327V21.5723L20.0221 7.71001H20.0135C19.4776 7.19211 18.7573 6.93317 18.0413 6.93317V6.9418C17.3253 6.9418 16.605 7.19211 16.0605 7.70569L1.10188 21.568V3.86896C1.09759 2.65623 2.17373 1.66791 3.48137 1.66791Z" fill="#004482"/>
<defs>
<linearGradient id="paint0_linear_568_7848" x1="18.039" y1="29.0515" x2="18.039" y2="9.44419" gradientUnits="userSpaceOnUse">
<stop stop-color="#3A4578"/>
<stop offset="1" stop-color="white"/>
</linearGradient>
</defs>
</svg>